<mxfile host="app.diagrams.net" modified="2024-05-14T05:15:57.990Z" agent="Mozilla/5.0 (X11; Linux x86_64; rv:125.0) Gecko/20100101 Firefox/125.0" etag="CoDdFheIC1Il6F0RjvEE" version="24.4.0" type="device">
  <diagram name="Σελίδα-1" id="n-RkLR972-2j1vFySblj">
    <mxGraphModel dx="794" dy="396" grid="1" gridSize="10" guides="1" tooltips="1" connect="1" arrows="1" fold="1" page="1" pageScale="1" pageWidth="827" pageHeight="1169" math="0" shadow="0">
      <root>
        <mxCell id="0" />
        <mxCell id="1" parent="0" />
        <mxCell id="min7FG0Ss1-NnrvJOLDx-5" style="edgeStyle=orthogonalEdgeStyle;rounded=0;orthogonalLoop=1;jettySize=auto;html=1;exitX=0.5;exitY=1;exitDx=0;exitDy=0;exitPerimeter=0;" parent="1" source="min7FG0Ss1-NnrvJOLDx-1" target="min7FG0Ss1-NnrvJOLDx-4" edge="1">
          <mxGeometry relative="1" as="geometry" />
        </mxCell>
        <mxCell id="min7FG0Ss1-NnrvJOLDx-1" value="START" style="strokeWidth=2;html=1;shape=mxgraph.flowchart.start_1;whiteSpace=wrap;" parent="1" vertex="1">
          <mxGeometry x="90" y="20" width="100" height="60" as="geometry" />
        </mxCell>
        <mxCell id="1fEOFfut0v_UoPSp4xYM-4" style="edgeStyle=orthogonalEdgeStyle;rounded=0;orthogonalLoop=1;jettySize=auto;html=1;exitX=0.5;exitY=1;exitDx=0;exitDy=0;entryX=0.5;entryY=0;entryDx=0;entryDy=0;" parent="1" source="min7FG0Ss1-NnrvJOLDx-4" target="1fEOFfut0v_UoPSp4xYM-3" edge="1">
          <mxGeometry relative="1" as="geometry" />
        </mxCell>
        <mxCell id="min7FG0Ss1-NnrvJOLDx-4" value="&lt;b&gt;SET&lt;/b&gt; k=0,T&lt;sub&gt;0&lt;/sub&gt;&amp;gt;0, neps&amp;gt;0,g,R" style="shape=parallelogram;html=1;strokeWidth=2;perimeter=parallelogramPerimeter;whiteSpace=wrap;rounded=1;arcSize=12;size=0.23;" parent="1" vertex="1">
          <mxGeometry x="70" y="110" width="140" height="50" as="geometry" />
        </mxCell>
        <mxCell id="1fEOFfut0v_UoPSp4xYM-6" style="edgeStyle=orthogonalEdgeStyle;rounded=0;orthogonalLoop=1;jettySize=auto;html=1;exitX=0.5;exitY=1;exitDx=0;exitDy=0;entryX=0.5;entryY=0;entryDx=0;entryDy=0;" parent="1" source="1fEOFfut0v_UoPSp4xYM-3" target="1fEOFfut0v_UoPSp4xYM-5" edge="1">
          <mxGeometry relative="1" as="geometry" />
        </mxCell>
        <mxCell id="1fEOFfut0v_UoPSp4xYM-3" value="&lt;b&gt;Set&lt;/b&gt; x&lt;sub&gt;b&lt;/sub&gt;,f&lt;sub&gt;b&lt;/sub&gt;" style="shape=parallelogram;html=1;strokeWidth=2;perimeter=parallelogramPerimeter;whiteSpace=wrap;rounded=1;arcSize=12;size=0.23;" parent="1" vertex="1">
          <mxGeometry x="60" y="180" width="130" height="40" as="geometry" />
        </mxCell>
        <mxCell id="1fEOFfut0v_UoPSp4xYM-8" style="edgeStyle=orthogonalEdgeStyle;rounded=0;orthogonalLoop=1;jettySize=auto;html=1;exitX=0.5;exitY=1;exitDx=0;exitDy=0;entryX=0.5;entryY=0;entryDx=0;entryDy=0;" parent="1" source="1fEOFfut0v_UoPSp4xYM-5" target="1fEOFfut0v_UoPSp4xYM-7" edge="1">
          <mxGeometry relative="1" as="geometry" />
        </mxCell>
        <mxCell id="1fEOFfut0v_UoPSp4xYM-5" value="i=1" style="rounded=1;whiteSpace=wrap;html=1;absoluteArcSize=1;arcSize=14;strokeWidth=2;" parent="1" vertex="1">
          <mxGeometry x="70" y="240" width="110" height="30" as="geometry" />
        </mxCell>
        <mxCell id="1fEOFfut0v_UoPSp4xYM-10" style="edgeStyle=orthogonalEdgeStyle;rounded=0;orthogonalLoop=1;jettySize=auto;html=1;exitX=0.5;exitY=1;exitDx=0;exitDy=0;entryX=0.5;entryY=0;entryDx=0;entryDy=0;" parent="1" source="1fEOFfut0v_UoPSp4xYM-7" target="1fEOFfut0v_UoPSp4xYM-9" edge="1">
          <mxGeometry relative="1" as="geometry" />
        </mxCell>
        <mxCell id="1fEOFfut0v_UoPSp4xYM-7" value="y=x&lt;sub&gt;k&lt;/sub&gt;" style="rounded=1;whiteSpace=wrap;html=1;absoluteArcSize=1;arcSize=14;strokeWidth=2;" parent="1" vertex="1">
          <mxGeometry x="77.5" y="290" width="95" height="40" as="geometry" />
        </mxCell>
        <mxCell id="1fEOFfut0v_UoPSp4xYM-9" value="&lt;b&gt;Perform&lt;/b&gt; g random variations in y with range R" style="rounded=1;whiteSpace=wrap;html=1;absoluteArcSize=1;arcSize=14;strokeWidth=2;" parent="1" vertex="1">
          <mxGeometry x="57.5" y="350" width="132.5" height="40" as="geometry" />
        </mxCell>
        <mxCell id="1fEOFfut0v_UoPSp4xYM-16" style="edgeStyle=orthogonalEdgeStyle;rounded=0;orthogonalLoop=1;jettySize=auto;html=1;exitX=0;exitY=0.5;exitDx=0;exitDy=0;exitPerimeter=0;entryX=0.75;entryY=0;entryDx=0;entryDy=0;" parent="1" source="1fEOFfut0v_UoPSp4xYM-13" target="1fEOFfut0v_UoPSp4xYM-15" edge="1">
          <mxGeometry relative="1" as="geometry" />
        </mxCell>
        <mxCell id="1fEOFfut0v_UoPSp4xYM-28" value="YES" style="edgeLabel;html=1;align=center;verticalAlign=middle;resizable=0;points=[];" parent="1fEOFfut0v_UoPSp4xYM-16" vertex="1" connectable="0">
          <mxGeometry x="-0.5636" relative="1" as="geometry">
            <mxPoint x="5" y="-25" as="offset" />
          </mxGeometry>
        </mxCell>
        <mxCell id="1fEOFfut0v_UoPSp4xYM-18" style="edgeStyle=orthogonalEdgeStyle;rounded=0;orthogonalLoop=1;jettySize=auto;html=1;exitX=1;exitY=0.5;exitDx=0;exitDy=0;exitPerimeter=0;entryX=0.5;entryY=0;entryDx=0;entryDy=0;" parent="1" source="1fEOFfut0v_UoPSp4xYM-13" target="1fEOFfut0v_UoPSp4xYM-17" edge="1">
          <mxGeometry relative="1" as="geometry" />
        </mxCell>
        <mxCell id="1fEOFfut0v_UoPSp4xYM-29" value="NO" style="edgeLabel;html=1;align=center;verticalAlign=middle;resizable=0;points=[];" parent="1fEOFfut0v_UoPSp4xYM-18" vertex="1" connectable="0">
          <mxGeometry x="-0.4902" y="1" relative="1" as="geometry">
            <mxPoint x="-14" y="-14" as="offset" />
          </mxGeometry>
        </mxCell>
        <mxCell id="1fEOFfut0v_UoPSp4xYM-13" value="f(y)&amp;lt;f(x&lt;sub&gt;k&lt;/sub&gt;)" style="strokeWidth=2;html=1;shape=mxgraph.flowchart.decision;whiteSpace=wrap;" parent="1" vertex="1">
          <mxGeometry x="72.5" y="405" width="100" height="100" as="geometry" />
        </mxCell>
        <mxCell id="1fEOFfut0v_UoPSp4xYM-14" style="edgeStyle=orthogonalEdgeStyle;rounded=0;orthogonalLoop=1;jettySize=auto;html=1;exitX=0.5;exitY=1;exitDx=0;exitDy=0;entryX=0.5;entryY=0;entryDx=0;entryDy=0;entryPerimeter=0;" parent="1" source="1fEOFfut0v_UoPSp4xYM-9" target="1fEOFfut0v_UoPSp4xYM-13" edge="1">
          <mxGeometry relative="1" as="geometry" />
        </mxCell>
        <mxCell id="1fEOFfut0v_UoPSp4xYM-22" style="edgeStyle=orthogonalEdgeStyle;rounded=0;orthogonalLoop=1;jettySize=auto;html=1;exitX=0.5;exitY=1;exitDx=0;exitDy=0;entryX=0.5;entryY=0;entryDx=0;entryDy=0;" parent="1" source="1fEOFfut0v_UoPSp4xYM-15" target="1fEOFfut0v_UoPSp4xYM-21" edge="1">
          <mxGeometry relative="1" as="geometry" />
        </mxCell>
        <mxCell id="1fEOFfut0v_UoPSp4xYM-15" value="x&lt;sub&gt;k+1&lt;/sub&gt;=y" style="rounded=1;whiteSpace=wrap;html=1;absoluteArcSize=1;arcSize=14;strokeWidth=2;" parent="1" vertex="1">
          <mxGeometry x="10" y="540" width="100" height="40" as="geometry" />
        </mxCell>
        <mxCell id="1fEOFfut0v_UoPSp4xYM-20" style="edgeStyle=orthogonalEdgeStyle;rounded=0;orthogonalLoop=1;jettySize=auto;html=1;exitX=0.5;exitY=1;exitDx=0;exitDy=0;entryX=0.5;entryY=0;entryDx=0;entryDy=0;" parent="1" source="1fEOFfut0v_UoPSp4xYM-17" target="1fEOFfut0v_UoPSp4xYM-19" edge="1">
          <mxGeometry relative="1" as="geometry" />
        </mxCell>
        <mxCell id="1fEOFfut0v_UoPSp4xYM-17" value="p=min(1,exp(-(f(y)-f(x&lt;sub&gt;k&lt;/sub&gt;))/T&lt;sub&gt;k&lt;/sub&gt;))" style="rounded=1;whiteSpace=wrap;html=1;absoluteArcSize=1;arcSize=14;strokeWidth=2;" parent="1" vertex="1">
          <mxGeometry x="150" y="540" width="130" height="40" as="geometry" />
        </mxCell>
        <mxCell id="1fEOFfut0v_UoPSp4xYM-23" style="edgeStyle=orthogonalEdgeStyle;rounded=0;orthogonalLoop=1;jettySize=auto;html=1;exitX=0.5;exitY=1;exitDx=0;exitDy=0;" parent="1" source="1fEOFfut0v_UoPSp4xYM-19" edge="1">
          <mxGeometry relative="1" as="geometry">
            <mxPoint x="110" y="680" as="targetPoint" />
          </mxGeometry>
        </mxCell>
        <mxCell id="1fEOFfut0v_UoPSp4xYM-19" value="Set xk+1=y with probability p" style="rounded=1;whiteSpace=wrap;html=1;absoluteArcSize=1;arcSize=14;strokeWidth=2;" parent="1" vertex="1">
          <mxGeometry x="150" y="600" width="130" height="40" as="geometry" />
        </mxCell>
        <mxCell id="1fEOFfut0v_UoPSp4xYM-21" value="i=i+1" style="rounded=1;whiteSpace=wrap;html=1;absoluteArcSize=1;arcSize=14;strokeWidth=2;" parent="1" vertex="1">
          <mxGeometry x="40" y="680" width="120" height="30" as="geometry" />
        </mxCell>
        <mxCell id="1fEOFfut0v_UoPSp4xYM-32" style="edgeStyle=orthogonalEdgeStyle;rounded=0;orthogonalLoop=1;jettySize=auto;html=1;exitX=1;exitY=0.5;exitDx=0;exitDy=0;exitPerimeter=0;entryX=0.5;entryY=0;entryDx=0;entryDy=0;" parent="1" source="1fEOFfut0v_UoPSp4xYM-24" target="1fEOFfut0v_UoPSp4xYM-31" edge="1">
          <mxGeometry relative="1" as="geometry" />
        </mxCell>
        <mxCell id="1fEOFfut0v_UoPSp4xYM-49" style="edgeStyle=orthogonalEdgeStyle;rounded=0;orthogonalLoop=1;jettySize=auto;html=1;exitX=0;exitY=0.5;exitDx=0;exitDy=0;exitPerimeter=0;entryX=1;entryY=0.75;entryDx=0;entryDy=0;" parent="1" source="1fEOFfut0v_UoPSp4xYM-24" target="1fEOFfut0v_UoPSp4xYM-7" edge="1">
          <mxGeometry relative="1" as="geometry" />
        </mxCell>
        <mxCell id="1fEOFfut0v_UoPSp4xYM-50" value="YES" style="edgeLabel;html=1;align=center;verticalAlign=middle;resizable=0;points=[];" parent="1fEOFfut0v_UoPSp4xYM-49" vertex="1" connectable="0">
          <mxGeometry x="-0.5278" y="2" relative="1" as="geometry">
            <mxPoint x="60" y="-12" as="offset" />
          </mxGeometry>
        </mxCell>
        <mxCell id="1fEOFfut0v_UoPSp4xYM-24" value="i&amp;lt;neps" style="strokeWidth=2;html=1;shape=mxgraph.flowchart.decision;whiteSpace=wrap;" parent="1" vertex="1">
          <mxGeometry x="409" y="330" width="100" height="100" as="geometry" />
        </mxCell>
        <mxCell id="1fEOFfut0v_UoPSp4xYM-35" style="edgeStyle=orthogonalEdgeStyle;rounded=0;orthogonalLoop=1;jettySize=auto;html=1;exitX=0.5;exitY=1;exitDx=0;exitDy=0;entryX=0.5;entryY=0;entryDx=0;entryDy=0;" parent="1" source="1fEOFfut0v_UoPSp4xYM-31" target="1fEOFfut0v_UoPSp4xYM-34" edge="1">
          <mxGeometry relative="1" as="geometry" />
        </mxCell>
        <mxCell id="1fEOFfut0v_UoPSp4xYM-31" value="T&lt;sub&gt;k+1&lt;/sub&gt;=T&lt;sub&gt;k&lt;/sub&gt;rt" style="rounded=1;whiteSpace=wrap;html=1;absoluteArcSize=1;arcSize=14;strokeWidth=2;" parent="1" vertex="1">
          <mxGeometry x="399" y="490" width="110" height="40" as="geometry" />
        </mxCell>
        <mxCell id="1fEOFfut0v_UoPSp4xYM-33" value="NO" style="text;html=1;align=center;verticalAlign=middle;resizable=0;points=[];autosize=1;strokeColor=none;fillColor=none;" parent="1" vertex="1">
          <mxGeometry x="514" y="475" width="40" height="30" as="geometry" />
        </mxCell>
        <mxCell id="1fEOFfut0v_UoPSp4xYM-34" value="k=k+1" style="rounded=1;whiteSpace=wrap;html=1;absoluteArcSize=1;arcSize=14;strokeWidth=2;" parent="1" vertex="1">
          <mxGeometry x="399" y="555" width="110" height="30" as="geometry" />
        </mxCell>
        <mxCell id="1fEOFfut0v_UoPSp4xYM-44" style="edgeStyle=orthogonalEdgeStyle;rounded=0;orthogonalLoop=1;jettySize=auto;html=1;exitX=0;exitY=0.5;exitDx=0;exitDy=0;exitPerimeter=0;entryX=0;entryY=0.5;entryDx=0;entryDy=0;" parent="1" source="1fEOFfut0v_UoPSp4xYM-37" target="1fEOFfut0v_UoPSp4xYM-39" edge="1">
          <mxGeometry relative="1" as="geometry" />
        </mxCell>
        <mxCell id="1fEOFfut0v_UoPSp4xYM-45" value="YES" style="edgeLabel;html=1;align=center;verticalAlign=middle;resizable=0;points=[];" parent="1fEOFfut0v_UoPSp4xYM-44" vertex="1" connectable="0">
          <mxGeometry x="-0.6167" y="3" relative="1" as="geometry">
            <mxPoint y="-13" as="offset" />
          </mxGeometry>
        </mxCell>
        <mxCell id="1fEOFfut0v_UoPSp4xYM-52" style="edgeStyle=orthogonalEdgeStyle;rounded=0;orthogonalLoop=1;jettySize=auto;html=1;exitX=1;exitY=0.5;exitDx=0;exitDy=0;exitPerimeter=0;entryX=1;entryY=0.5;entryDx=0;entryDy=0;" parent="1" source="1fEOFfut0v_UoPSp4xYM-37" target="1fEOFfut0v_UoPSp4xYM-5" edge="1">
          <mxGeometry relative="1" as="geometry">
            <Array as="points">
              <mxPoint x="550" y="640" />
              <mxPoint x="550" y="255" />
            </Array>
          </mxGeometry>
        </mxCell>
        <mxCell id="1fEOFfut0v_UoPSp4xYM-53" value="NO" style="edgeLabel;html=1;align=center;verticalAlign=middle;resizable=0;points=[];" parent="1fEOFfut0v_UoPSp4xYM-52" vertex="1" connectable="0">
          <mxGeometry x="-0.9082" y="-3" relative="1" as="geometry">
            <mxPoint x="-22" y="-13" as="offset" />
          </mxGeometry>
        </mxCell>
        <mxCell id="1fEOFfut0v_UoPSp4xYM-37" value="T&lt;sub&gt;k&lt;/sub&gt;&amp;lt;e" style="strokeWidth=2;html=1;shape=mxgraph.flowchart.decision;whiteSpace=wrap;" parent="1" vertex="1">
          <mxGeometry x="399" y="610" width="100" height="60" as="geometry" />
        </mxCell>
        <mxCell id="1fEOFfut0v_UoPSp4xYM-38" style="edgeStyle=orthogonalEdgeStyle;rounded=0;orthogonalLoop=1;jettySize=auto;html=1;exitX=0.5;exitY=1;exitDx=0;exitDy=0;entryX=0.5;entryY=0;entryDx=0;entryDy=0;entryPerimeter=0;" parent="1" source="1fEOFfut0v_UoPSp4xYM-34" target="1fEOFfut0v_UoPSp4xYM-37" edge="1">
          <mxGeometry relative="1" as="geometry" />
        </mxCell>
        <mxCell id="1fEOFfut0v_UoPSp4xYM-42" style="edgeStyle=orthogonalEdgeStyle;rounded=0;orthogonalLoop=1;jettySize=auto;html=1;exitX=0.5;exitY=1;exitDx=0;exitDy=0;" parent="1" source="1fEOFfut0v_UoPSp4xYM-39" target="1fEOFfut0v_UoPSp4xYM-41" edge="1">
          <mxGeometry relative="1" as="geometry" />
        </mxCell>
        <mxCell id="1fEOFfut0v_UoPSp4xYM-39" value="Obtain the best value x&lt;sub&gt;b&lt;/sub&gt;" style="rounded=1;whiteSpace=wrap;html=1;absoluteArcSize=1;arcSize=14;strokeWidth=2;" parent="1" vertex="1">
          <mxGeometry x="409" y="690" width="101" height="40" as="geometry" />
        </mxCell>
        <mxCell id="1fEOFfut0v_UoPSp4xYM-41" value="TERMINATE" style="strokeWidth=2;html=1;shape=mxgraph.flowchart.terminator;whiteSpace=wrap;" parent="1" vertex="1">
          <mxGeometry x="409" y="740" width="100" height="60" as="geometry" />
        </mxCell>
        <mxCell id="-TR3xO8zMzmYviUJSWug-1" style="edgeStyle=orthogonalEdgeStyle;rounded=0;orthogonalLoop=1;jettySize=auto;html=1;exitX=1;exitY=0.5;exitDx=0;exitDy=0;entryX=0.5;entryY=0;entryDx=0;entryDy=0;entryPerimeter=0;" parent="1" source="1fEOFfut0v_UoPSp4xYM-21" target="1fEOFfut0v_UoPSp4xYM-24" edge="1">
          <mxGeometry relative="1" as="geometry">
            <Array as="points">
              <mxPoint x="285" y="695" />
              <mxPoint x="285" y="280" />
              <mxPoint x="459" y="280" />
            </Array>
          </mxGeometry>
        </mxCell>
      </root>
    </mxGraphModel>
  </diagram>
</mxfile>
